<?xml version="1.0" standalone="no"?><!DOCTYPE svg PUBLIC "-//W3C//DTD SVG 1.1//EN" "http://www.w3.org/Graphics/SVG/1.1/DTD/svg11.dtd"><svg t="1669096402754" class="icon" viewBox="0 0 1024 1024" version="1.1" xmlns="http://www.w3.org/2000/svg" p-id="1448" xmlns:xlink="http://www.w3.org/1999/xlink" width="32" height="32"><path d="M115.4048 821.4016V236.2368c0-9.5744 4.7616-18.432 12.7488-23.7056C174.08 182.3744 337.408 95.0272 508.672 241.9712c126.6688-155.9552 327.7312-65.1776 383.1296-34.2016a28.3648 28.3648 0 0 1 14.592 24.7808v589.3632c0 11.776-12.9024 18.8928-22.9888 12.6976-54.528-33.5872-200.3456-97.4848-373.0432 37.0688-111.1552-130.6624-296.8576-88.32-371.5584-37.8368-9.9328 6.7584-23.3984-0.4096-23.3984-12.4416z" fill="#C0DAF9" p-id="1449"></path><path d="M219.5456 170.9568c-42.4448 12.0832-74.7008 30.5664-91.392 41.5232a28.25728 28.25728 0 0 0-12.7488 23.7056v585.1648c0 12.0832 13.4656 19.2 23.4496 12.4416 20.0704-13.568 48.1792-26.5216 80.6912-35.6864V170.9568zM593.4592 174.7968c-30.1056 13.8752-58.9824 35.3792-84.736 67.1744-28.8768-24.7808-57.5488-42.8544-85.4528-55.7056v620.4416c31.488 13.7728 61.3376 34.6624 87.0912 64.9728 28.5184-22.2208 56.32-39.0144 83.0464-51.4048V174.7968zM892.928 207.7696c-16.1792-9.728-45.7216-25.3952-82.3296-37.4272v629.7088a277.23776 277.23776 0 0 1 74.496 34.56c9.3184 6.1952 21.3504-0.9216 21.3504-12.6976V232.5504c0-10.2912-5.1712-19.7632-13.5168-24.7808z" fill="#9EBFEF" p-id="1450"></path><path d="M198.0928 191.0784v607.5904l64.8192-12.8V158.6688zM584.0384 191.0784v607.5904l64.8704-12.8V158.6688z" fill="#E9F5FF" p-id="1451"></path><path d="M904.3456 185.3952c-42.2912-23.6032-253.5424-129.4336-398.5408 21.1968-177.408-135.8848-343.6544-47.0016-391.68-15.5136a53.7856 53.7856 0 0 0-24.32 45.1072v585.1648a40.5504 40.5504 0 0 0 21.5552 35.8912 40.56576 40.56576 0 0 0 41.8304-2.2528c68.5056-46.2848 237.8752-84.1216 337.7152 33.2288a25.5488 25.5488 0 0 0 35.2256 3.584c159.9488-124.5696 293.7856-66.304 343.9104-35.4304a40.66304 40.66304 0 1 0 62.0032-34.56V232.5504c0-19.5584-10.5984-37.5808-27.6992-47.1552zM313.5488 759.1936h-2.7648c-69.4272 0.5632-130.304 21.248-169.728 43.3152V236.2368c0-0.9728 0.4608-1.792 1.1776-2.304 41.472-27.2384 187.0336-104.8576 341.4528 20.48l1.536 558.6944c-58.0608-43.264-122.624-53.9136-171.6736-53.9136z m567.296 44.3904c-62.8736-33.8432-191.9488-76.9024-344.3712 18.6368l-1.536-571.5968c119.5008-135.7824 307.456-41.216 344.4736-20.5312 0.9216 0.512 1.4336 1.4336 1.4336 2.4576v571.0336z" fill="#434A54" p-id="1452"></path></svg>